<svg xmlns="http://www.w3.org/2000/svg" xmlns:xlink="http://www.w3.org/1999/xlink" xmlns:lucid="lucid" width="2681" height="540.89"><g transform="translate(-2079.5 -1119.6077473958333)" lucid:page-tab-id="0_0"><path d="M2260 1368.3a8 8 0 0 1 8-8h144a8 8 0 0 1 8 8v104a8 8 0 0 1-8 8h-144a8 8 0 0 1-8-8z" stroke="#3a414a" fill="#fff"/><use xlink:href="#a" transform="matrix(1,0,0,1,2272,1372.2878232285696) translate(48.35563151041667 42.586154513888886)"/><use xlink:href="#b" transform="matrix(1,0,0,1,2272,1372.2878232285696) translate(20.700086805555557 69.74305555555554)"/><path d="M2421 1420.3h86.1" stroke="#3a414a" fill="none"/><path d="M2421 1420.76h-.5v-.95h.5z" stroke="#3a414a" stroke-width=".05" fill="#3a414a"/><path d="M2521.88 1420.3l-14.27 4.62v-9.27z" stroke="#3a414a" fill="#3a414a"/><path d="M2593.6 1365.1a10.67 10.67 0 0 1 12.8 0l67.2 50.4a6 6 0 0 1 0 9.6l-67.2 50.4a10.67 10.67 0 0 1-12.8 0l-67.2-50.4a6 6 0 0 1 0-9.6z" stroke="#3a414a" fill="#fff"/><use xlink:href="#c" transform="matrix(1,0,0,1,2525,1365.2878232285696) translate(7.732421875 49.586154513888886)"/><use xlink:href="#d" transform="matrix(1,0,0,1,2525,1365.2878232285696) translate(49.42122395833333 49.586154513888886)"/><use xlink:href="#e" transform="matrix(1,0,0,1,2525,1365.2878232285696) translate(94.63888888888889 49.586154513888886)"/><use xlink:href="#f" transform="matrix(1,0,0,1,2525,1365.2878232285696) translate(32.53309461805557 76.74305555555554)"/><use xlink:href="#g" transform="matrix(1,0,0,1,2525,1365.2878232285696) translate(105.99262152777777 76.74305555555554)"/><path d="M2708.78 1421.26h-31.28v-1.95h31.28zm52.22 0h-13.78v-1.95H2761z" stroke="#54c45e" stroke-width=".05" fill="#54c45e"/><path d="M2677.53 1421.26h-1.12l.1-.97-.1-1h1.13z" fill="#54c45e"/><path stroke="#54c45e" stroke-width=".05" fill="#54c45e"/><path d="M2776.26 1420.3l-14.26 4.62v-9.27z" fill="#54c45e"/><path d="M2779.42 1420.3l-18.4 5.97v-11.96zm-16.45 3.28l10.14-3.3-10.13-3.3z" stroke="#54c45e" stroke-width=".05" fill="#54c45e"/><use xlink:href="#h" transform="matrix(1,0,0,1,2708.7786431974678,1406.7093727077363) translate(0.004999999999999005 21.74305555555555)"/><path d="M2780 1348.4a8 8 0 0 1 8-8h144a8 8 0 0 1 8 8v143.78a8 8 0 0 1-8 8h-144a8 8 0 0 1-8-8z" stroke="#3a414a" fill="#fff"/><use xlink:href="#i" transform="matrix(1,0,0,1,2792,1352.3955706244028) translate(35.45665147569446 21.850802951388893)"/><use xlink:href="#j" transform="matrix(1,0,0,1,2792,1352.3955706244028) translate(24.98513454861112 49.00770399305556)"/><use xlink:href="#k" transform="matrix(1,0,0,1,2792,1352.3955706244028) translate(5.5873480902778 76.16460503472221)"/><use xlink:href="#l" transform="matrix(1,0,0,1,2792,1352.3955706244028) translate(96.71310763888889 76.16460503472221)"/><use xlink:href="#m" transform="matrix(1,0,0,1,2792,1352.3955706244028) translate(17.68082682291668 103.32150607638889)"/><use xlink:href="#n" transform="matrix(1,0,0,1,2792,1352.3955706244028) translate(96.55419921875 103.32150607638889)"/><use xlink:href="#o" transform="matrix(1,0,0,1,2792,1352.3955706244028) translate(19.450737847222236 130.47840711805554)"/><use xlink:href="#p" transform="matrix(1,0,0,1,2792,1352.3955706244028) translate(59.46278211805556 130.47840711805554)"/><path d="M2941 1420.3h85.65" stroke="#3a414a" fill="none"/><path d="M2941 1420.76h-.5v-.95h.5z" stroke="#3a414a" stroke-width=".05" fill="#3a414a"/><path d="M3041.4 1420.3l-14.25 4.62v-9.27z" stroke="#3a414a" fill="#3a414a"/><path d="M3114.1 1352.78a8.78 8.78 0 0 1 11.8 0l68.2 62.12a7.3 7.3 0 0 1 0 10.78l-68.2 62.1a8.78 8.78 0 0 1-11.8 0l-68.2-62.1a7.3 7.3 0 0 1 0-10.78z" stroke="#3a414a" fill="#fff"/><use xlink:href="#q" transform="matrix(1,0,0,1,3045,1352.3955706244028) translate(0.6144205729166856 21.850802951388893)"/><use xlink:href="#r" transform="matrix(1,0,0,1,3045,1352.3955706244028) translate(61.51470269097223 21.850802951388893)"/><use xlink:href="#s" transform="matrix(1,0,0,1,3045,1352.3955706244028) translate(80.60563151041667 21.850802951388893)"/><use xlink:href="#t" transform="matrix(1,0,0,1,3045,1352.3955706244028) translate(136.7824978298611 21.850802951388893)"/><use xlink:href="#u" transform="matrix(1,0,0,1,3045,1352.3955706244028) translate(5.567979600694471 49.00770399305556)"/><use xlink:href="#v" transform="matrix(1,0,0,1,3045,1352.3955706244028) translate(85.72357855902779 49.00770399305556)"/><use xlink:href="#l" transform="matrix(1,0,0,1,3045,1352.3955706244028) translate(110.73247612847221 49.00770399305556)"/><use xlink:href="#w" transform="matrix(1,0,0,1,3045,1352.3955706244028) translate(46.40196397569445 76.16460503472221)"/><use xlink:href="#x" transform="matrix(1,0,0,1,3045,1352.3955706244028) translate(13.288736979166671 103.32150607638889)"/><use xlink:href="#y" transform="matrix(1,0,0,1,3045,1352.3955706244028) translate(112.26128472222221 103.32150607638889)"/><use xlink:href="#o" transform="matrix(1,0,0,1,3045,1352.3955706244028) translate(13.310655381944471 130.47840711805554)"/><use xlink:href="#z" transform="matrix(1,0,0,1,3045,1352.3955706244028) translate(53.32269965277779 130.47840711805554)"/><use xlink:href="#g" transform="matrix(1,0,0,1,3045,1352.3955706244028) translate(125.21506076388887 130.47840711805554)"/><path d="M3229 1421.26h-31.03v-1.95H3229zm52-.3h-13.54v-1.93H3281z" stroke="#54c45e" stroke-width=".05" fill="#54c45e"/><path d="M3198 1421.26h-1.1l.07-.97-.08-1h1.1z" fill="#54c45e"/><path stroke="#54c45e" stroke-width=".05" fill="#54c45e"/><path d="M3296.26 1420l-14.26 4.63v-9.27z" fill="#54c45e"/><path d="M3299.42 1420l-18.4 5.98v-11.96zm-16.45 3.3l10.14-3.3-10.13-3.3z" stroke="#54c45e" stroke-width=".05" fill="#54c45e"/><use xlink:href="#h" transform="matrix(1,0,0,1,3229.0116533699443,1406.5654610934514) translate(0.004999999999999005 21.74305555555555)"/><path d="M3300 1368a8 8 0 0 1 8-8h144a8 8 0 0 1 8 8v104a8 8 0 0 1-8 8h-144a8 8 0 0 1-8-8z" stroke="#3a414a" fill="#fff"/><use xlink:href="#A" transform="matrix(1,0,0,1,3312,1372) translate(9.823079427083357 29.007703993055557)"/><use xlink:href="#v" transform="matrix(1,0,0,1,3312,1372) translate(67.4684787326389 29.007703993055557)"/><use xlink:href="#l" transform="matrix(1,0,0,1,3312,1372) translate(92.47737630208333 29.007703993055557)"/><use xlink:href="#x" transform="matrix(1,0,0,1,3312,1372) translate(7.631239149305564 56.16460503472222)"/><use xlink:href="#n" transform="matrix(1,0,0,1,3312,1372) translate(106.60378689236111 56.16460503472222)"/><use xlink:href="#o" transform="matrix(1,0,0,1,3312,1372) translate(11.072428385416686 83.32150607638889)"/><use xlink:href="#B" transform="matrix(1,0,0,1,3312,1372) translate(51.08447265625001 83.32150607638889)"/><path d="M3461 1420h50.86a.14.14 0 0 1 .14.14.14.14 0 0 0 .14.15h34.97" stroke="#3a414a" fill="none"/><path d="M3461 1420.47h-.5v-.94h.5z" stroke="#3a414a" stroke-width=".05" fill="#3a414a"/><path d="M3561.88 1420.3l-14.27 4.62v-9.27z" stroke="#3a414a" fill="#3a414a"/><path d="M3633.6 1365.1a10.67 10.67 0 0 1 12.8 0l67.2 50.4a6 6 0 0 1 0 9.6l-67.2 50.4a10.67 10.67 0 0 1-12.8 0l-67.2-50.4a6 6 0 0 1 0-9.6z" stroke="#3a414a" fill="#fff"/><use xlink:href="#C" transform="matrix(1,0,0,1,3565,1365.2878232285696) translate(16.658691406250007 36.00770399305556)"/><use xlink:href="#d" transform="matrix(1,0,0,1,3565,1365.2878232285696) translate(52.626790364583336 36.00770399305556)"/><use xlink:href="#D" transform="matrix(1,0,0,1,3565,1365.2878232285696) translate(97.84445529513889 36.00770399305556)"/><use xlink:href="#E" transform="matrix(1,0,0,1,3565,1365.2878232285696) translate(35.98524305555557 63.16460503472222)"/><use xlink:href="#l" transform="matrix(1,0,0,1,3565,1365.2878232285696) translate(80.31521267361111 63.16460503472222)"/><use xlink:href="#u" transform="matrix(1,0,0,1,3565,1365.2878232285696) translate(29.185058593750014 90.32150607638889)"/><use xlink:href="#g" transform="matrix(1,0,0,1,3565,1365.2878232285696) translate(109.34065755208333 90.32150607638889)"/><path d="M3780.78 1421.26h-63.28v-1.95h63.28zm84.22 0h-45.78v-1.95H3865z" stroke="#54c45e" stroke-width=".05" fill="#54c45e"/><path d="M3717.53 1421.26h-1.12l.1-.97-.1-1h1.13z" fill="#54c45e"/><path stroke="#54c45e" stroke-width=".05" fill="#54c45e"/><path d="M3880.26 1420.3l-14.26 4.62v-9.27z" fill="#54c45e"/><path d="M3883.42 1420.3l-18.4 5.97v-11.96zm-16.45 3.28l10.14-3.3-10.13-3.3z" stroke="#54c45e" stroke-width=".05" fill="#54c45e"/><use xlink:href="#h" transform="matrix(1,0,0,1,3780.7775607638887,1406.7093727077363) translate(0.004999999999999005 21.74305555555555)"/><path d="M3953.6 1365.1a10.67 10.67 0 0 1 12.8 0l67.2 50.4a6 6 0 0 1 0 9.6l-67.2 50.4a10.67 10.67 0 0 1-12.8 0l-67.2-50.4a6 6 0 0 1 0-9.6z" stroke="#3a414a" fill="#fff"/><use xlink:href="#F" transform="matrix(1,0,0,1,3885,1365.2878232285696) translate(5.9789496527778 49.586154513888886)"/><use xlink:href="#o" transform="matrix(1,0,0,1,3885,1365.2878232285696) translate(30.16590711805557 49.586154513888886)"/><use xlink:href="#G" transform="matrix(1,0,0,1,3885,1365.2878232285696) translate(70.17795138888889 49.586154513888886)"/><use xlink:href="#H" transform="matrix(1,0,0,1,3885,1365.2878232285696) translate(18.96560329861113 76.74305555555554)"/><use xlink:href="#g" transform="matrix(1,0,0,1,3885,1365.2878232285696) translate(119.56011284722221 76.74305555555554)"/><path d="M4110.78 1421.26h-73.28v-1.95h73.28zm94.22 0h-55.78v-1.95H4205z" stroke="#54c45e" stroke-width=".05" fill="#54c45e"/><path d="M4037.53 1421.26h-1.12l.1-.97-.1-1h1.13z" fill="#54c45e"/><path stroke="#54c45e" stroke-width=".05" fill="#54c45e"/><path d="M4220.26 1420.3l-14.26 4.62v-9.27z" fill="#54c45e"/><path d="M4223.42 1420.3l-18.4 5.97v-11.96zm-16.45 3.28l10.14-3.3-10.13-3.3z" stroke="#54c45e" stroke-width=".05" fill="#54c45e"/><use xlink:href="#h" transform="matrix(1,0,0,1,4110.777560763889,1406.7093727077363) translate(0.004999999999999005 21.74305555555555)"/><path d="M4293.6 1365.1a10.67 10.67 0 0 1 12.8 0l67.2 50.4a6 6 0 0 1 0 9.6l-67.2 50.4a10.67 10.67 0 0 1-12.8 0l-67.2-50.4a6 6 0 0 1 0-9.6z" stroke="#3a414a" fill="#fff"/><use xlink:href="#I" transform="matrix(1,0,0,1,4225,1365.2878232285696) translate(34.06738281250001 22.42925347222222)"/><use xlink:href="#J" transform="matrix(1,0,0,1,4225,1365.2878232285696) translate(77.02745225694444 22.42925347222222)"/><use xlink:href="#K" transform="matrix(1,0,0,1,4225,1365.2878232285696) translate(21.941026475694457 49.586154513888886)"/><use xlink:href="#L" transform="matrix(1,0,0,1,4225,1365.2878232285696) translate(19.16286892361113 76.74305555555554)"/><use xlink:href="#M" transform="matrix(1,0,0,1,4225,1365.2878232285696) translate(81.33441840277777 76.74305555555554)"/><use xlink:href="#o" transform="matrix(1,0,0,1,4225,1365.2878232285696) translate(9.179036458333357 103.8999565972222)"/><use xlink:href="#u" transform="matrix(1,0,0,1,4225,1365.2878232285696) translate(49.19108072916668 103.8999565972222)"/><use xlink:href="#g" transform="matrix(1,0,0,1,4225,1365.2878232285696) translate(129.3466796875 103.8999565972222)"/><path d="M4468.78 1421.26h-91.28v-1.95h91.28zm112.22-.3h-73.78v-1.93H4581z" stroke="#54c45e" stroke-width=".05" fill="#54c45e"/><path d="M4377.53 1421.26h-1.12l.1-.97-.1-1h1.13z" fill="#54c45e"/><path stroke="#54c45e" stroke-width=".05" fill="#54c45e"/><path d="M4596.26 1420l-14.26 4.63v-9.27z" fill="#54c45e"/><path d="M4599.42 1420l-18.4 5.98v-11.96zm-16.45 3.3l10.14-3.3-10.13-3.3z" stroke="#54c45e" stroke-width=".05" fill="#54c45e"/><use xlink:href="#h" transform="matrix(1,0,0,1,4468.778643197467,1406.565461093451) translate(0.004999999999999005 21.74305555555555)"/><path d="M4600 1368a8 8 0 0 1 8-8h144a8 8 0 0 1 8 8v104a8 8 0 0 1-8 8h-144a8 8 0 0 1-8-8z" stroke="#3a414a" fill="#fff"/><use xlink:href="#N" transform="matrix(1,0,0,1,4612,1372) translate(20.9631076388889 42.586154513888886)"/><use xlink:href="#O" transform="matrix(1,0,0,1,4612,1372) translate(66.56434461805556 42.586154513888886)"/><use xlink:href="#P" transform="matrix(1,0,0,1,4612,1372) translate(34.04839409722223 69.74305555555554)"/><use xlink:href="#Q" transform="matrix(1,0,0,1,4612,1372) translate(85.04155815972221 69.74305555555554)"/><path d="M2260 1548a8 8 0 0 1 8-8h144a8 8 0 0 1 8 8v104a8 8 0 0 1-8 8h-144a8 8 0 0 1-8-8z" stroke="#3a414a" fill="#fff"/><use xlink:href="#R" transform="matrix(1,0,0,1,2272,1552) translate(8.24495442708335 56.16460503472222)"/><use xlink:href="#S" transform="matrix(1,0,0,1,2272,1552) translate(60.914876302083336 56.16460503472222)"/><use xlink:href="#T" transform="matrix(1,0,0,1,2272,1552) translate(90.00059678819443 56.16460503472222)"/><path d="M2340 1539v-41.83" stroke="#3a414a" fill="none"/><path d="M2340.47 1539.5h-.94v-.5h.94z" stroke="#3a414a" stroke-width=".05" fill="#3a414a"/><path d="M2340 1482.4l4.64 14.27h-9.28z" stroke="#3a414a" fill="#3a414a"/><path d="M2556 1600.97h-117v-1.94h117zm44.97-12.93l-.15 2-.48 1.97-.78 1.9-1.06 1.73-1.32 1.55-1.55 1.32-1.74 1.06-1.9.78-1.97.48-2 .15h-1.66v-1.94h1.6l1.75-.14 1.7-.42 1.58-.66 1.48-.9 1.3-1.13 1.14-1.32.9-1.48.66-1.6.4-1.68.14-1.76v-108.84h1.95z" stroke="#fe7070" stroke-width=".05" fill="#fe7070"/><path d="M2600 1478.12l.97-.06v1.1h-1.94v-1.1z" fill="#fe7070"/><path stroke="#fe7070" stroke-width=".05" fill="#fe7070"/><path d="M2438 1604.63l-14.26-4.63 14.26-4.63z" fill="#fe7070"/><path d="M2438.98 1605.98l-18.4-5.98 18.4-5.98zm-12.1-5.98l10.15 3.3v-6.6z" stroke="#fe7070" stroke-width=".05" fill="#fe7070"/><g><use xlink:href="#U" transform="matrix(1,0,0,1,2556.004915164458,1586.4215494791667) translate(0.005000000000000782 21.74305555555555)"/></g><path d="M2556 1600.47H2436.9v-.94H2556zm2124.48-12.45l-.16 1.93-.45 1.9-.75 1.8-1.03 1.68-1.28 1.5-1.5 1.26-1.66 1.02-1.8.75-1.9.45-1.94.15H2586.37v-.94h2081.6l1.83-.15 1.76-.42 1.67-.7 1.54-.94 1.38-1.17 1.17-1.38.95-1.54.7-1.67.4-1.76.15-1.82V1481h.95z" stroke="#3a414a" stroke-width=".05" fill="#3a414a"/><path d="M4680.48 1481h-.95v-.5h.95z" fill="#3a414a"/><path stroke="#3a414a" stroke-width=".05" fill="#3a414a"/><path d="M2436.38 1604.63l-14.26-4.63 14.26-4.63z" fill="#3a414a"/><path d="M2436.86 1605.3l-16.28-5.3 16.28-5.3zm-13.2-5.3l12.25 3.98v-7.96z" stroke="#3a414a" stroke-width=".05" fill="#3a414a"/><path d="M3110.03 1309.17l1.98.48 1.9.78 1.73 1.06 1.55 1.32 1.32 1.54 1.06 1.74.78 1.88.48 1.98.15 2v27.03h-1.94v-26.97l-.14-1.76-.42-1.68-.66-1.6-.9-1.5-1.13-1.3-1.32-1.13-1.48-.9-1.6-.66-1.68-.4-1.76-.13H2740.3v-1.95h367.74zm-400.1 1.8h-357.9l-1.75.14-1.7.4-1.58.67-1.48.9-1.3 1.13-1.14 1.3-.9 1.5-.66 1.6-.4 1.67-.14 1.76v19.26h-1.95v-19.35l.15-2 .48-1.97.78-1.88 1.06-1.74 1.32-1.54 1.55-1.33 1.74-1.07 1.9-.78 1.97-.48 2-.15h357.95z" stroke="#fe7070" stroke-width=".05" fill="#fe7070"/><path d="M3120.97 1350.06l-.97-.07-.97.06v-1.1h1.94z" fill="#fe7070"/><path stroke="#fe7070" stroke-width=".05" fill="#fe7070"/><path d="M2340 1356.55l-4.64-14.26h9.28z" fill="#fe7070"/><path d="M2340 1359.7l-5.98-18.4h11.96zm-3.3-16.44l3.3 10.14 3.3-10.14z" stroke="#fe7070" stroke-width=".05" fill="#fe7070"/><g><use xlink:href="#U" transform="matrix(1,0,0,1,2709.9182256121894,1296.413820980726) translate(0.005000000000000782 21.74305555555555)"/></g><path d="M3630.03 1308.9l1.98.46 1.9.78 1.73 1.06 1.55 1.33 1.32 1.55 1.06 1.73.78 1.9.48 1.97.15 2v39.78h-1.94v-39.7l-.14-1.77-.42-1.68-.66-1.6-.9-1.47-1.13-1.32-1.32-1.1-1.48-.92-1.6-.66-1.68-.4-1.76-.14H2740.3v-1.95h887.74zm-920.1 1.78h-357.9l-1.75.14-1.7.4-1.58.66-1.48.9-1.3 1.13-1.14 1.33-.9 1.47-.66 1.6-.4 1.68-.14 1.76v19.55h-1.95v-19.63l.15-2 .48-1.98.78-1.9 1.06-1.72 1.32-1.55 1.55-1.33 1.74-1.06 1.9-.78 1.97-.47 2-.17h357.95z" stroke="#fe7070" stroke-width=".05" fill="#fe7070"/><path d="M3640.97 1362.52l-.97-.07-.97.07v-1.1h1.94z" fill="#fe7070"/><path stroke="#fe7070" stroke-width=".05" fill="#fe7070"/><path d="M2340 1356.55l-4.64-14.26h9.28z" fill="#fe7070"/><path d="M2340 1359.7l-5.98-18.4h11.96zm-3.3-16.44l3.3 10.14 3.3-10.14z" stroke="#fe7070" stroke-width=".05" fill="#fe7070"/><g><use xlink:href="#U" transform="matrix(1,0,0,1,2976.1488267787427,1278.5475472313233) translate(0.005000000000000782 21.74305555555555)"/></g><path d="M4290.03 1309.17l1.98.48 1.9.78 1.73 1.06 1.55 1.32 1.32 1.54 1.06 1.74.78 1.88.48 1.98.16 2v39.5h-1.95v-39.43l-.14-1.76-.42-1.68-.66-1.6-.9-1.5-1.13-1.3-1.32-1.13-1.48-.9-1.6-.66-1.68-.4-1.76-.13h-312.78v-1.95h312.86zm-345.2 1.8h-552.8l-1.75.14-1.7.4-1.58.67-1.48.9-1.3 1.13-1.14 1.3-.9 1.5-.66 1.6-.4 1.67-.14 1.76V1341h-1.95v-19.05l.15-2 .48-1.97.78-1.88 1.06-1.74 1.32-1.54 1.55-1.33 1.74-1.07 1.9-.78 1.97-.48 2-.15h552.85z" stroke="#fe7070" stroke-width=".05" fill="#fe7070"/><path d="M4300.98 1362.52l-.98-.07-.98.07v-1.1h1.95z" fill="#fe7070"/><path stroke="#fe7070" stroke-width=".05" fill="#fe7070"/><path d="M3380 1356.26l-4.64-14.26h9.28z" fill="#fe7070"/><path d="M3380 1359.42l-5.98-18.4h11.96zm-3.3-16.45l3.3 10.14 3.3-10.13z" stroke="#fe7070" stroke-width=".05" fill="#fe7070"/><g><use xlink:href="#U" transform="matrix(1,0,0,1,3826.2927383930273,1278.8353704598928) translate(0.005000000000000782 21.74305555555555)"/></g><path d="M3960.97 1361.45h-1.94V1335h1.94zm0-53.6h-1.94v-8.96h1.94z" stroke="#fe7070" stroke-width=".05" fill="#fe7070"/><path d="M3960.97 1362.52l-.97-.07-.97.07v-1.1h1.94z" fill="#fe7070"/><path stroke="#fe7070" stroke-width=".05" fill="#fe7070"/><path d="M3964.64 1297.9h-9.28l4.64-14.27z" fill="#fe7070"/><path d="M3965.98 1298.87h-11.96l5.98-18.4zm-9.27-1.95h6.6l-3.3-10.14z" stroke="#fe7070" stroke-width=".05" fill="#fe7070"/><g><use xlink:href="#U" transform="matrix(1,0,0,1,3944.8160264756943,1307.8443875944163) translate(0.005000000000000782 21.74305555555555)"/></g><path d="M3880 1128.1a8 8 0 0 1 8-8h144a8 8 0 0 1 8 8v143.8a8 8 0 0 1-8 8h-144a8 8 0 0 1-8-8z" stroke="#3a414a" fill="#fff"/><g><use xlink:href="#V" transform="matrix(1,0,0,1,3892,1132.1077473958333) translate(17.1164279513889 21.850802951388893)"/><use xlink:href="#W" transform="matrix(1,0,0,1,3892,1132.1077473958333) translate(44.32264539930556 49.00770399305556)"/><use xlink:href="#X" transform="matrix(1,0,0,1,3892,1132.1077473958333) translate(21.66997612847223 76.16460503472221)"/><use xlink:href="#k" transform="matrix(1,0,0,1,3892,1132.1077473958333) translate(5.5873480902778 103.32150607638889)"/><use xlink:href="#l" transform="matrix(1,0,0,1,3892,1132.1077473958333) translate(96.71310763888889 103.32150607638889)"/><use xlink:href="#B" transform="matrix(1,0,0,1,3892,1132.1077473958333) translate(31.078450520833343 130.47840711805554)"/></g><path d="M3879 1200.47h-343.48l-1.82.15-1.76.42-1.67.7-1.55.94-1.37 1.17-1.17 1.38-.95 1.54-.7 1.67-.4 1.76-.16 1.82v196.25l.15 1.82.42 1.75.7 1.67.94 1.54 1.17 1.38 1.38 1.17 1.54.96 1.67.7 1.76.4 1.82.15h11.6v.96h-11.64l-1.93-.15-1.9-.45-1.82-.75-1.67-1.02-1.48-1.27-1.28-1.48-1.02-1.67-.75-1.8-.45-1.9-.16-1.94V1212l.16-1.93.45-1.9.75-1.8 1.02-1.68 1.28-1.5 1.48-1.26 1.67-1.02 1.8-.75 1.92-.45 1.93-.15H3879z" stroke="#3a414a" stroke-width=".05" fill="#3a414a"/><path d="M3879.5 1200.47h-.5v-.94h.5z" fill="#3a414a"/><path stroke="#3a414a" stroke-width=".05" fill="#3a414a"/><path d="M3561.88 1420.3l-14.27 4.62v-9.27z" fill="#3a414a"/><path d="M3563.42 1420.3l-16.28 5.28V1415zm-15.33 3.97l12.24-3.98-12.25-4zM2243.12 1419.8v.96h-39.14v-.95zm-162.62.67v-.94h72.88v.94zM2080.5 1420.47h-.5v-.94h.5z" stroke="#3a414a" stroke-width=".05" fill="#3a414a"/><path d="M2257.88 1420.3l-14.26 4.62v-9.27z" fill="#3a414a"/><path d="M2259.42 1420.3l-16.28 5.28V1415zm-15.33 3.97l12.24-3.98-12.25-4z" stroke="#3a414a" stroke-width=".05" fill="#3a414a"/><g><use xlink:href="#Y" transform="matrix(1,0,0,1,2153.380662264376,1406.7093727077363) translate(0.004999999999999005 21.74305555555555)"/></g><defs><path fill="#3a414a" d="M657 26c-323 0-524-166-541-416h195c15 169 171 246 346 246 202 0 356-106 356-265 5-203-294-238-475-293-239-73-380-191-380-389 0-252 224-419 512-419 294 0 499 171 508 396H992c-17-145-151-228-328-228-193 0-321 102-321 242 0 156 175 211 284 241l149 41c160 44 422 134 422 412 0 244-197 432-541 432" id="Z"/><path fill="#3a414a" d="M471 26C259 26 90-98 90-318c0-256 228-303 435-329 202-27 287-16 287-108 0-139-79-219-234-219-161 0-248 86-283 164l-173-57c86-203 278-265 451-265 150 0 419 46 419 395V0H815v-152h-12C765-73 660 26 471 26zm31-159c199 0 310-134 310-271v-155c-30 35-226 55-295 64-131 17-246 59-246 186 0 116 97 176 231 176" id="aa"/><path fill="#3a414a" d="M140 405l46-156c120 36 205 19 263-150l32-93L54-1118h197c107 313 237 620 324 950 87-331 219-637 326-950h196L606 167c-68 178-176 259-334 259-64 0-113-12-132-21" id="ab"/><g id="a"><use transform="matrix(0.010959201388888886,0,0,0.010959201388888886,0,0)" xlink:href="#Z"/><use transform="matrix(0.010959201388888886,0,0,0.010959201388888886,14.400390624999996,0)" xlink:href="#aa"/><use transform="matrix(0.010959201388888886,0,0,0.010959201388888886,26.67469618055555,0)" xlink:href="#ab"/></g><path fill="#3a414a" d="M232-923l-22-567h194l-22 567H232zm340 0l-22-567h194l-22 567H572" id="ac"/><path fill="#3a414a" d="M180 0v-1490h270l367 940c28 72 75 218 110 339 35-117 81-264 110-339l362-940h271V0h-187c2-448-5-837 7-1287-157 497-311 829-483 1287H842C666-458 514-784 354-1284c12 438 5 843 7 1284H180" id="ad"/><path fill="#3a414a" d="M158 0v-1118h174v172h12c41-113 157-188 290-188 26 0 70 2 91 3v181c-11-2-60-10-108-10-161 0-279 109-279 260V0H158" id="ae"/><path fill="#3a414a" d="M613 24c-304 0-509-231-509-576 0-350 205-580 509-580 216 0 392 114 453 309l-173 49c-33-115-133-197-280-197-223 0-326 196-326 419 0 220 103 415 326 415 150 0 252-85 285-206l172 49C1010-95 832 24 613 24" id="af"/><path fill="#3a414a" d="M613 24c-304 0-509-231-509-576 0-350 205-580 509-580 305 0 511 230 511 580 0 345-206 576-511 576zm0-161c226 0 329-195 329-415 0-222-103-419-329-419-223 0-326 196-326 419 0 220 103 415 326 415" id="ag"/><path fill="#3a414a" d="M204-479l-12-1011h204L383-479H204zm91 492c-75 0-135-60-135-134 0-75 60-135 135-135 74 0 134 60 134 135 0 74-60 134-134 134" id="ah"/><g id="b"><use transform="matrix(0.010959201388888886,0,0,0.010959201388888886,0,0)" xlink:href="#ac"/><use transform="matrix(0.010959201388888886,0,0,0.010959201388888886,10.455078124999998,0)" xlink:href="#ad"/><use transform="matrix(0.010959201388888886,0,0,0.010959201388888886,30.729600694444436,0)" xlink:href="#aa"/><use transform="matrix(0.010959201388888886,0,0,0.010959201388888886,43.33268229166666,0)" xlink:href="#ae"/><use transform="matrix(0.010959201388888886,0,0,0.010959201388888886,51.40961371527778,0)" xlink:href="#af"/><use transform="matrix(0.010959201388888886,0,0,0.010959201388888886,64.23187934027777,0)" xlink:href="#ag"/><use transform="matrix(0.010959201388888886,0,0,0.010959201388888886,77.68977864583333,0)" xlink:href="#ah"/><use transform="matrix(0.010959201388888886,0,0,0.010959201388888886,84.14474826388889,0)" xlink:href="#ac"/></g><path fill="#3a414a" d="M645 0H180v-1490h484c435 0 692 280 692 742 0 466-257 748-711 748zM370-168h263c363 0 539-218 539-580 0-358-176-574-521-574H370v1154" id="ai"/><path fill="#3a414a" d="M158 0v-1118h180V0H158zm91-1301c-68 0-125-53-125-119s57-119 125-119c69 0 126 53 126 119s-57 119-126 119" id="aj"/><path fill="#3a414a" d="M577 24c-279 0-473-224-473-580 0-354 195-576 474-576 218 0 287 134 324 193h14v-551h180V0H922v-173h-20C865-111 790 24 577 24zm27-161c203 0 314-172 314-421 0-247-108-413-314-413-212 0-317 181-317 413 0 235 108 421 317 421" id="ak"/><g id="c"><use transform="matrix(0.010959201388888886,0,0,0.010959201388888886,0,0)" xlink:href="#ai"/><use transform="matrix(0.010959201388888886,0,0,0.010959201388888886,16.197699652777775,0)" xlink:href="#aj"/><use transform="matrix(0.010959201388888886,0,0,0.010959201388888886,21.633463541666664,0)" xlink:href="#ak"/></g><path fill="#3a414a" d="M537 14c-226 0-379-139-379-422v-710h180v695c0 172 97 275 253 275 160 0 281-109 281-300v-670h181V0H879v-209C806-46 684 14 537 14" id="al"/><g id="d"><use transform="matrix(0.010959201388888886,0,0,0.010959201388888886,0,0)" xlink:href="#ab"/><use transform="matrix(0.010959201388888886,0,0,0.010959201388888886,12.175672743055554,0)" xlink:href="#ag"/><use transform="matrix(0.010959201388888886,0,0,0.010959201388888886,25.633572048611104,0)" xlink:href="#al"/></g><path fill="#3a414a" d="M338-670V0H158v-1490h180v566c73-149 190-208 336-208 226 0 379 139 379 422V0H872v-695c0-172-96-275-252-275-161 0-282 109-282 300" id="am"/><path fill="#3a414a" d="M628 24c-324 0-524-230-524-574 0-343 198-582 503-582 237 0 487 146 487 559v75H286c9 234 145 362 343 362 132 0 231-58 273-172l174 48C1024-91 857 24 628 24zM287-650h624c-17-190-120-322-304-322-192 0-309 151-320 322" id="an"/><g id="e"><use transform="matrix(0.010959201388888886,0,0,0.010959201388888886,0,0)" xlink:href="#am"/><use transform="matrix(0.010959201388888886,0,0,0.010959201388888886,13.271592881944441,0)" xlink:href="#an"/><use transform="matrix(0.010959201388888886,0,0,0.010959201388888886,26.57606336805555,0)" xlink:href="#aa"/><use transform="matrix(0.010959201388888886,0,0,0.010959201388888886,39.17914496527777,0)" xlink:href="#ae"/></g><path fill="#3a414a" d="M180 0v-1490h510c348 0 508 209 508 474 0 266-160 477-507 477H370V0H180zm190-706h312c236 0 327-133 327-310 0-176-91-307-329-307H370v617" id="ao"/><path fill="#3a414a" d="M338-1490V0H158v-1490h180" id="ap"/><g id="f"><use transform="matrix(0.010959201388888886,0,0,0.010959201388888886,0,0)" xlink:href="#ac"/><use transform="matrix(0.010959201388888886,0,0,0.010959201388888886,10.455078124999998,0)" xlink:href="#ao"/><use transform="matrix(0.010959201388888886,0,0,0.010959201388888886,24.669162326388882,0)" xlink:href="#ag"/><use transform="matrix(0.010959201388888886,0,0,0.010959201388888886,38.127061631944436,0)" xlink:href="#ap"/><use transform="matrix(0.010959201388888886,0,0,0.010959201388888886,43.56282552083332,0)" xlink:href="#ag"/><use transform="matrix(0.010959201388888886,0,0,0.010959201388888886,56.69194878472221,0)" xlink:href="#ac"/></g><path fill="#3a414a" d="M383-449c-3-277 82-343 222-425 88-53 156-134 156-250 0-139-108-227-243-227-118 0-235 70-246 236H82c10-251 200-395 436-395 259 0 427 165 427 393 0 161-74 273-203 352-132 80-180 132-178 316H383zm93 462c-75 0-135-60-135-134 0-75 60-135 135-135 74 0 134 60 134 135 0 74-60 134-134 134" id="aq"/><use transform="matrix(0.010959201388888886,0,0,0.010959201388888886,0,0)" xlink:href="#aq" id="g"/><path fill="#3a414a" d="M600 0v-610L52-1490h220l295 481c50 82 90 150 130 243 40-96 80-164 128-243l294-481h219L790-610V0H600" id="ar"/><path fill="#3a414a" d="M538 24C308 24 148-78 108-271l171-41c32 123 123 178 257 178 156 0 256-77 256-169 0-77-54-128-164-154l-186-44c-203-48-300-148-300-305 0-192 176-326 414-326 230 0 351 112 402 269l-163 42c-31-80-94-158-238-158-133 0-233 69-233 162 0 83 57 129 188 160l169 40c203 48 298 149 298 302 0 196-179 339-441 339" id="as"/><g id="h"><use transform="matrix(0.010959201388888886,0,0,0.010959201388888886,0,0)" xlink:href="#ar"/><use transform="matrix(0.010959201388888886,0,0,0.010959201388888886,13.512695312499996,0)" xlink:href="#an"/><use transform="matrix(0.010959201388888886,0,0,0.010959201388888886,26.59798177083333,0)" xlink:href="#as"/></g><path fill="#3a414a" d="M784 20c-382 0-662-292-662-764 0-473 280-766 662-766s660 293 660 766c0 472-278 764-660 764zm0-176c266 0 475-207 475-588 0-383-209-590-475-590-268 0-477 208-477 590 0 380 209 588 477 588" id="at"/><path fill="#3a414a" d="M338-670V0H158v-1118h173l1 207c72-158 192-221 342-221 226 0 378 139 378 422V0H872v-695c0-172-96-275-252-275-161 0-282 109-282 300" id="au"/><path fill="#3a414a" d="M598-1118v154H368v674c0 100 37 144 132 144 23 0 62-6 92-12L629-6c-37 13-88 20-134 20-193 0-307-107-307-290v-688H20v-154h168v-266h180v266h230" id="av"/><g id="i"><use transform="matrix(0.010959201388888886,0,0,0.010959201388888886,0,0)" xlink:href="#at"/><use transform="matrix(0.010959201388888886,0,0,0.010959201388888886,17.162109374999996,0)" xlink:href="#ae"/><use transform="matrix(0.010959201388888886,0,0,0.010959201388888886,25.96234809027777,0)" xlink:href="#aj"/><use transform="matrix(0.010959201388888886,0,0,0.010959201388888886,31.39811197916666,0)" xlink:href="#an"/><use transform="matrix(0.010959201388888886,0,0,0.010959201388888886,44.483398437499986,0)" xlink:href="#au"/><use transform="matrix(0.010959201388888886,0,0,0.010959201388888886,57.744032118055536,0)" xlink:href="#av"/></g><path fill="#3a414a" d="M678-1118v154H420V0H240v-964H20v-154h220v-149c0-194 155-293 318-293 85 0 141 18 168 30l-50 154c-19-6-47-17-97-17-111 0-159 58-159 166v109h258" id="aw"/><g id="j"><use transform="matrix(0.010959201388888886,0,0,0.010959201388888886,0,0)" xlink:href="#ab"/><use transform="matrix(0.010959201388888886,0,0,0.010959201388888886,12.175672743055554,0)" xlink:href="#ag"/><use transform="matrix(0.010959201388888886,0,0,0.010959201388888886,25.633572048611104,0)" xlink:href="#al"/><use transform="matrix(0.010959201388888886,0,0,0.010959201388888886,38.90516493055555,0)" xlink:href="#ae"/><use transform="matrix(0.010959201388888886,0,0,0.010959201388888886,47.354709201388886,0)" xlink:href="#as"/><use transform="matrix(0.010959201388888886,0,0,0.010959201388888886,59.20160590277777,0)" xlink:href="#an"/><use transform="matrix(0.010959201388888886,0,0,0.010959201388888886,72.2868923611111,0)" xlink:href="#ap"/><use transform="matrix(0.010959201388888886,0,0,0.010959201388888886,77.72265624999999,0)" xlink:href="#aw"/></g><path fill="#3a414a" d="M409 0L70-1118h191c89 329 165 560 243 925 75-353 154-601 240-925h192c85 325 161 564 235 922 77-354 157-598 244-922h191L1267 0h-179c-86-307-176-590-250-913C763-588 675-308 588 0H409" id="ax"/><g id="k"><use transform="matrix(0.010959201388888886,0,0,0.010959201388888886,0,0)" xlink:href="#av"/><use transform="matrix(0.010959201388888886,0,0,0.010959201388888886,7.123480902777776,0)" xlink:href="#ag"/><use transform="matrix(0.010959201388888886,0,0,0.010959201388888886,20.17588975694444,0)" xlink:href="#ax"/><use transform="matrix(0.010959201388888886,0,0,0.010959201388888886,38.543511284722214,0)" xlink:href="#aa"/><use transform="matrix(0.010959201388888886,0,0,0.010959201388888886,51.146592881944436,0)" xlink:href="#ae"/><use transform="matrix(0.010959201388888886,0,0,0.010959201388888886,59.22352430555554,0)" xlink:href="#ak"/><use transform="matrix(0.010959201388888886,0,0,0.010959201388888886,72.9663628472222,0)" xlink:href="#as"/></g><g id="l"><use transform="matrix(0.010959201388888886,0,0,0.010959201388888886,0,0)" xlink:href="#av"/><use transform="matrix(0.010959201388888886,0,0,0.010959201388888886,7.342664930555554,0)" xlink:href="#am"/><use transform="matrix(0.010959201388888886,0,0,0.010959201388888886,20.614257812499993,0)" xlink:href="#an"/></g><g id="m"><use transform="matrix(0.010959201388888886,0,0,0.010959201388888886,0,0)" xlink:href="#as"/><use transform="matrix(0.010959201388888886,0,0,0.010959201388888886,11.846896701388886,0)" xlink:href="#ag"/><use transform="matrix(0.010959201388888886,0,0,0.010959201388888886,25.304796006944432,0)" xlink:href="#al"/><use transform="matrix(0.010959201388888886,0,0,0.010959201388888886,38.57638888888888,0)" xlink:href="#ae"/><use transform="matrix(0.010959201388888886,0,0,0.010959201388888886,46.653320312499986,0)" xlink:href="#af"/><use transform="matrix(0.010959201388888886,0,0,0.010959201388888886,59.475585937499986,0)" xlink:href="#an"/></g><g id="n"><use transform="matrix(0.010959201388888886,0,0,0.010959201388888886,0,0)" xlink:href="#ag"/><use transform="matrix(0.010959201388888886,0,0,0.010959201388888886,13.457899305555552,0)" xlink:href="#aw"/></g><g id="o"><use transform="matrix(0.010959201388888886,0,0,0.010959201388888886,0,0)" xlink:href="#av"/><use transform="matrix(0.010959201388888886,0,0,0.010959201388888886,7.342664930555554,0)" xlink:href="#am"/><use transform="matrix(0.010959201388888886,0,0,0.010959201388888886,20.614257812499993,0)" xlink:href="#an"/></g><g id="p"><use transform="matrix(0.010959201388888886,0,0,0.010959201388888886,0,0)" xlink:href="#au"/><use transform="matrix(0.010959201388888886,0,0,0.010959201388888886,13.260633680555552,0)" xlink:href="#ag"/><use transform="matrix(0.010959201388888886,0,0,0.010959201388888886,26.718532986111104,0)" xlink:href="#aj"/><use transform="matrix(0.010959201388888886,0,0,0.010959201388888886,32.15429687499999,0)" xlink:href="#as"/><use transform="matrix(0.010959201388888886,0,0,0.010959201388888886,44.00119357638888,0)" xlink:href="#an"/></g><g id="q"><use transform="matrix(0.010959201388888886,0,0,0.010959201388888886,0,0)" xlink:href="#ai"/><use transform="matrix(0.010959201388888886,0,0,0.010959201388888886,16.197699652777775,0)" xlink:href="#ag"/><use transform="matrix(0.010959201388888886,0,0,0.010959201388888886,29.655598958333325,0)" xlink:href="#an"/><use transform="matrix(0.010959201388888886,0,0,0.010959201388888886,42.74088541666666,0)" xlink:href="#as"/></g><g id="r"><use transform="matrix(0.010959201388888886,0,0,0.010959201388888886,0,0)" xlink:href="#aj"/><use transform="matrix(0.010959201388888886,0,0,0.010959201388888886,5.4357638888888875,0)" xlink:href="#av"/></g><g id="s"><use transform="matrix(0.010959201388888886,0,0,0.010959201388888886,0,0)" xlink:href="#as"/><use transform="matrix(0.010959201388888886,0,0,0.010959201388888886,11.846896701388886,0)" xlink:href="#an"/><use transform="matrix(0.010959201388888886,0,0,0.010959201388888886,24.932183159722218,0)" xlink:href="#an"/><use transform="matrix(0.010959201388888886,0,0,0.010959201388888886,38.01746961805554,0)" xlink:href="#as"/></g><use transform="matrix(0.010959201388888886,0,0,0.010959201388888886,0,0)" xlink:href="#aa" id="t"/><path fill="#3a414a" d="M158 418v-1536h174v179h20c37-59 106-193 324-193 279 0 474 222 474 576 0 356-194 580-473 580-213 0-288-135-325-197h-14v591H158zm492-555c209 0 317-186 317-421 0-232-105-413-317-413-206 0-314 166-314 413 0 249 111 421 314 421" id="ay"/><g id="u"><use transform="matrix(0.010959201388888886,0,0,0.010959201388888886,0,0)" xlink:href="#ay"/><use transform="matrix(0.010959201388888886,0,0,0.010959201388888886,13.742838541666664,0)" xlink:href="#an"/><use transform="matrix(0.010959201388888886,0,0,0.010959201388888886,26.828124999999993,0)" xlink:href="#ae"/><use transform="matrix(0.010959201388888886,0,0,0.010959201388888886,35.27766927083333,0)" xlink:href="#as"/><use transform="matrix(0.010959201388888886,0,0,0.010959201388888886,47.124565972222214,0)" xlink:href="#ag"/><use transform="matrix(0.010959201388888886,0,0,0.010959201388888886,60.582465277777764,0)" xlink:href="#au"/></g><g id="v"><use transform="matrix(0.010959201388888886,0,0,0.010959201388888886,0,0)" xlink:href="#aj"/><use transform="matrix(0.010959201388888886,0,0,0.010959201388888886,5.4357638888888875,0)" xlink:href="#au"/></g><path fill="#3a414a" d="M158 0v-1118h175l1 205c55-151 181-225 313-225 147 0 245 90 285 228 53-141 190-228 352-228 194 0 352 125 352 384V0h-181v-749c0-161-105-225-225-225-151 0-243 103-243 244V0H807v-767c0-124-93-207-219-207-131 0-250 92-250 270V0H158" id="az"/><g id="w"><use transform="matrix(0.010959201388888886,0,0,0.010959201388888886,0,0)" xlink:href="#as"/><use transform="matrix(0.010959201388888886,0,0,0.010959201388888886,11.846896701388886,0)" xlink:href="#aa"/><use transform="matrix(0.010959201388888886,0,0,0.010959201388888886,24.449978298611107,0)" xlink:href="#az"/><use transform="matrix(0.010959201388888886,0,0,0.010959201388888886,44.11078559027777,0)" xlink:href="#an"/></g><g id="x"><use transform="matrix(0.010959201388888886,0,0,0.010959201388888886,0,0)" xlink:href="#ak"/><use transform="matrix(0.010959201388888886,0,0,0.010959201388888886,13.742838541666664,0)" xlink:href="#aj"/><use transform="matrix(0.010959201388888886,0,0,0.010959201388888886,19.17860243055555,0)" xlink:href="#ae"/><use transform="matrix(0.010959201388888886,0,0,0.010959201388888886,27.25553385416666,0)" xlink:href="#an"/><use transform="matrix(0.010959201388888886,0,0,0.010959201388888886,40.34082031249999,0)" xlink:href="#af"/><use transform="matrix(0.010959201388888886,0,0,0.010959201388888886,53.163085937499986,0)" xlink:href="#av"/><use transform="matrix(0.010959201388888886,0,0,0.010959201388888886,60.50575086805554,0)" xlink:href="#aj"/><use transform="matrix(0.010959201388888886,0,0,0.010959201388888886,65.94151475694443,0)" xlink:href="#ag"/><use transform="matrix(0.010959201388888886,0,0,0.010959201388888886,79.39941406249999,0)" xlink:href="#au"/></g><g id="y"><use transform="matrix(0.010959201388888886,0,0,0.010959201388888886,0,0)" xlink:href="#aa"/><use transform="matrix(0.010959201388888886,0,0,0.010959201388888886,12.60308159722222,0)" xlink:href="#as"/></g><g id="z"><use transform="matrix(0.010959201388888886,0,0,0.010959201388888886,0,0)" xlink:href="#as"/><use transform="matrix(0.010959201388888886,0,0,0.010959201388888886,11.846896701388886,0)" xlink:href="#ag"/><use transform="matrix(0.010959201388888886,0,0,0.010959201388888886,25.304796006944432,0)" xlink:href="#al"/><use transform="matrix(0.010959201388888886,0,0,0.010959201388888886,38.57638888888888,0)" xlink:href="#au"/><use transform="matrix(0.010959201388888886,0,0,0.010959201388888886,51.837022569444436,0)" xlink:href="#ak"/></g><path fill="#3a414a" d="M458 0L52-1490h194c108 439 233 855 324 1313 92-459 221-873 331-1313h216c110 438 234 854 330 1307 92-455 216-869 323-1307h196L1558 0h-221l-256-944c-26-95-50-200-73-331-22 122-44 223-73 331L680 0H458" id="aA"/><path fill="#3a414a" d="M158 0v-1490h180v865h22l478-493h223L593-638 1096 0H865L456-523 338-412V0H158" id="aB"/><g id="A"><use transform="matrix(0.010959201388888886,0,0,0.010959201388888886,0,0)" xlink:href="#aA"/><use transform="matrix(0.010959201388888886,0,0,0.010959201388888886,20.97591145833333,0)" xlink:href="#aa"/><use transform="matrix(0.010959201388888886,0,0,0.010959201388888886,33.57899305555555,0)" xlink:href="#ap"/><use transform="matrix(0.010959201388888886,0,0,0.010959201388888886,39.014756944444436,0)" xlink:href="#aB"/></g><g id="B"><use transform="matrix(0.010959201388888886,0,0,0.010959201388888886,0,0)" xlink:href="#ay"/><use transform="matrix(0.010959201388888886,0,0,0.010959201388888886,13.742838541666664,0)" xlink:href="#an"/><use transform="matrix(0.010959201388888886,0,0,0.010959201388888886,26.828124999999993,0)" xlink:href="#ae"/><use transform="matrix(0.010959201388888886,0,0,0.010959201388888886,35.27766927083333,0)" xlink:href="#as"/><use transform="matrix(0.010959201388888886,0,0,0.010959201388888886,47.124565972222214,0)" xlink:href="#ag"/><use transform="matrix(0.010959201388888886,0,0,0.010959201388888886,60.582465277777764,0)" xlink:href="#au"/></g><g id="C"><use transform="matrix(0.010959201388888886,0,0,0.010959201388888886,0,0)" xlink:href="#ai"/><use transform="matrix(0.010959201388888886,0,0,0.010959201388888886,16.197699652777775,0)" xlink:href="#ag"/></g><g id="D"><use transform="matrix(0.010959201388888886,0,0,0.010959201388888886,0,0)" xlink:href="#as"/><use transform="matrix(0.010959201388888886,0,0,0.010959201388888886,11.846896701388886,0)" xlink:href="#av"/><use transform="matrix(0.010959201388888886,0,0,0.010959201388888886,19.18956163194444,0)" xlink:href="#aj"/><use transform="matrix(0.010959201388888886,0,0,0.010959201388888886,24.62532552083333,0)" xlink:href="#ap"/><use transform="matrix(0.010959201388888886,0,0,0.010959201388888886,30.061089409722214,0)" xlink:href="#ap"/></g><g id="E"><use transform="matrix(0.010959201388888886,0,0,0.010959201388888886,0,0)" xlink:href="#as"/><use transform="matrix(0.010959201388888886,0,0,0.010959201388888886,11.846896701388886,0)" xlink:href="#an"/><use transform="matrix(0.010959201388888886,0,0,0.010959201388888886,24.932183159722218,0)" xlink:href="#an"/></g><path fill="#3a414a" d="M370-1490V0H180v-1490h190" id="aC"/><g id="F"><use transform="matrix(0.010959201388888886,0,0,0.010959201388888886,0,0)" xlink:href="#aC"/><use transform="matrix(0.010959201388888886,0,0,0.010959201388888886,6.0275607638888875,0)" xlink:href="#as"/></g><g id="G"><use transform="matrix(0.010959201388888886,0,0,0.010959201388888886,0,0)" xlink:href="#ay"/><use transform="matrix(0.010959201388888886,0,0,0.010959201388888886,13.742838541666664,0)" xlink:href="#an"/><use transform="matrix(0.010959201388888886,0,0,0.010959201388888886,26.828124999999993,0)" xlink:href="#ae"/><use transform="matrix(0.010959201388888886,0,0,0.010959201388888886,35.27766927083333,0)" xlink:href="#as"/><use transform="matrix(0.010959201388888886,0,0,0.010959201388888886,47.124565972222214,0)" xlink:href="#ag"/><use transform="matrix(0.010959201388888886,0,0,0.010959201388888886,60.582465277777764,0)" xlink:href="#au"/></g><g id="H"><use transform="matrix(0.010959201388888886,0,0,0.010959201388888886,0,0)" xlink:href="#af"/><use transform="matrix(0.010959201388888886,0,0,0.010959201388888886,12.822265624999996,0)" xlink:href="#an"/><use transform="matrix(0.010959201388888886,0,0,0.010959201388888886,25.90755208333333,0)" xlink:href="#au"/><use transform="matrix(0.010959201388888886,0,0,0.010959201388888886,39.16818576388888,0)" xlink:href="#av"/><use transform="matrix(0.010959201388888886,0,0,0.010959201388888886,46.29166666666666,0)" xlink:href="#an"/><use transform="matrix(0.010959201388888886,0,0,0.010959201388888886,59.376953124999986,0)" xlink:href="#ae"/><use transform="matrix(0.010959201388888886,0,0,0.010959201388888886,67.4538845486111,0)" xlink:href="#an"/><use transform="matrix(0.010959201388888886,0,0,0.010959201388888886,80.53917100694443,0)" xlink:href="#ak"/></g><path fill="#3a414a" d="M52 0l541-1490h220L1361 0h-200l-149-416H398L254 0H52zm404-582h497c-103-290-145-390-251-756-108 377-145 460-246 756" id="aD"/><g id="I"><use transform="matrix(0.010959201388888886,0,0,0.010959201388888886,0,0)" xlink:href="#aD"/><use transform="matrix(0.010959201388888886,0,0,0.010959201388888886,15.485351562499996,0)" xlink:href="#ae"/><use transform="matrix(0.010959201388888886,0,0,0.010959201388888886,23.562282986111107,0)" xlink:href="#an"/></g><g id="J"><use transform="matrix(0.010959201388888886,0,0,0.010959201388888886,0,0)" xlink:href="#ab"/><use transform="matrix(0.010959201388888886,0,0,0.010959201388888886,12.175672743055554,0)" xlink:href="#ag"/><use transform="matrix(0.010959201388888886,0,0,0.010959201388888886,25.633572048611104,0)" xlink:href="#al"/></g><path fill="#3a414a" d="M226 279v-1860h398v153H398V126h226v153H226" id="aE"/><path fill="#3a414a" d="M123 279V126h226v-1554H123v-153h398V279H123" id="aF"/><g id="K"><use transform="matrix(0.010959201388888886,0,0,0.010959201388888886,0,0)" xlink:href="#aE"/><use transform="matrix(0.010959201388888886,0,0,0.010959201388888886,7.934461805555554,0)" xlink:href="#ak"/><use transform="matrix(0.010959201388888886,0,0,0.010959201388888886,21.677300347222218,0)" xlink:href="#aj"/><use transform="matrix(0.010959201388888886,0,0,0.010959201388888886,27.113064236111104,0)" xlink:href="#as"/><use transform="matrix(0.010959201388888886,0,0,0.010959201388888886,38.95996093749999,0)" xlink:href="#av"/><use transform="matrix(0.010959201388888886,0,0,0.010959201388888886,46.41221788194442,0)" xlink:href="#aa"/><use transform="matrix(0.010959201388888886,0,0,0.010959201388888886,59.01529947916665,0)" xlink:href="#au"/><use transform="matrix(0.010959201388888886,0,0,0.010959201388888886,72.2759331597222,0)" xlink:href="#af"/><use transform="matrix(0.010959201388888886,0,0,0.010959201388888886,85.0981987847222,0)" xlink:href="#an"/><use transform="matrix(0.010959201388888886,0,0,0.010959201388888886,97.93142361111109,0)" xlink:href="#aF"/></g><g id="L"><use transform="matrix(0.010959201388888886,0,0,0.010959201388888886,0,0)" xlink:href="#aa"/><use transform="matrix(0.010959201388888886,0,0,0.010959201388888886,12.60308159722222,0)" xlink:href="#ax"/><use transform="matrix(0.010959201388888886,0,0,0.010959201388888886,30.970703124999993,0)" xlink:href="#aa"/><use transform="matrix(0.010959201388888886,0,0,0.010959201388888886,43.24500868055554,0)" xlink:href="#ab"/></g><g id="M"><use transform="matrix(0.010959201388888886,0,0,0.010959201388888886,0,0)" xlink:href="#aw"/><use transform="matrix(0.010959201388888886,0,0,0.010959201388888886,8.307074652777775,0)" xlink:href="#ae"/><use transform="matrix(0.010959201388888886,0,0,0.010959201388888886,16.384006076388886,0)" xlink:href="#ag"/><use transform="matrix(0.010959201388888886,0,0,0.010959201388888886,29.84190538194444,0)" xlink:href="#az"/></g><g id="N"><use transform="matrix(0.010959201388888886,0,0,0.010959201388888886,0,0)" xlink:href="#Z"/><use transform="matrix(0.010959201388888886,0,0,0.010959201388888886,14.400390624999996,0)" xlink:href="#aa"/><use transform="matrix(0.010959201388888886,0,0,0.010959201388888886,26.67469618055555,0)" xlink:href="#ab"/></g><path fill="#3a414a" d="M232-923l-22-567h194l-22 567H232" id="aG"/><path fill="#3a414a" d="M481 0L54-1118h197c107 314 236 620 325 951 87-331 217-637 324-951h197L670 0H481" id="aH"/><g id="O"><use transform="matrix(0.010959201388888886,0,0,0.010959201388888886,0,0)" xlink:href="#ac"/><use transform="matrix(0.010959201388888886,0,0,0.010959201388888886,10.455078124999998,0)" xlink:href="#aC"/><use transform="matrix(0.010959201388888886,0,0,0.010959201388888886,16.482638888888886,0)" xlink:href="#aG"/><use transform="matrix(0.010959201388888886,0,0,0.010959201388888886,23.21158854166666,0)" xlink:href="#aH"/><use transform="matrix(0.010959201388888886,0,0,0.010959201388888886,35.387261284722214,0)" xlink:href="#an"/></g><g id="P"><use transform="matrix(0.010959201388888886,0,0,0.010959201388888886,0,0)" xlink:href="#ax"/><use transform="matrix(0.010959201388888886,0,0,0.010959201388888886,17.962131076388886,0)" xlink:href="#ag"/><use transform="matrix(0.010959201388888886,0,0,0.010959201388888886,31.420030381944436,0)" xlink:href="#au"/></g><g id="Q"><use transform="matrix(0.010959201388888886,0,0,0.010959201388888886,0,0)" xlink:href="#ah"/><use transform="matrix(0.010959201388888886,0,0,0.010959201388888886,6.4549696180555545,0)" xlink:href="#ac"/></g><g id="R"><use transform="matrix(0.010959201388888886,0,0,0.010959201388888886,0,0)" xlink:href="#aA"/><use transform="matrix(0.010959201388888886,0,0,0.010959201388888886,20.97591145833333,0)" xlink:href="#aa"/><use transform="matrix(0.010959201388888886,0,0,0.010959201388888886,33.57899305555555,0)" xlink:href="#aj"/><use transform="matrix(0.010959201388888886,0,0,0.010959201388888886,39.014756944444436,0)" xlink:href="#av"/></g><path fill="#3a414a" d="M653-1490V0H466v-1314h-10L96-1047v-204l324-239h233" id="aI"/><path fill="#3a414a" d="M626 20c-262 0-458-168-468-396h184c12 133 134 229 284 229 180 0 311-137 311-326 0-192-136-335-323-335-92 0-196 33-255 78l-178-22 88-738h784v167H429l-51 435h8c61-51 160-87 263-87 273 0 474 211 474 499 0 286-210 496-497 496" id="aJ"/><g id="S"><use transform="matrix(0.010959201388888886,0,0,0.010959201388888886,0,0)" xlink:href="#aI"/><use transform="matrix(0.010959201388888886,0,0,0.010959201388888886,9.129014756944443,0)" xlink:href="#aJ"/></g><g id="T"><use transform="matrix(0.010959201388888886,0,0,0.010959201388888886,0,0)" xlink:href="#as"/><use transform="matrix(0.010959201388888886,0,0,0.010959201388888886,11.846896701388886,0)" xlink:href="#an"/><use transform="matrix(0.010959201388888886,0,0,0.010959201388888886,24.932183159722218,0)" xlink:href="#af"/></g><path fill="#3a414a" d="M180 0v-1490h224l606 953c40 63 108 177 176 312-27-437-7-821-13-1265h190V0h-226C860-448 622-778 356-1262c27 476 11 792 15 1262H180" id="aK"/><g id="U"><use transform="matrix(0.010959201388888886,0,0,0.010959201388888886,0,0)" xlink:href="#aK"/><use transform="matrix(0.010959201388888886,0,0,0.010959201388888886,16.91004774305555,0)" xlink:href="#ag"/></g><path fill="#3a414a" d="M180 0v-1490h510c348 0 508 194 508 460 0 198-88 351-276 417L1256 0h-220L726-579c-117 2-238 0-356 1V0H180zm190-747h312c235 0 327-108 327-283 0-177-92-293-329-293H370v576" id="aL"/><path fill="#3a414a" d="M798-719v166H144v-166h654" id="aM"/><path fill="#3a414a" d="M157-1118h181V80c1 225-123 350-364 338V252c126 9 184-48 183-172v-1198zm91-183c-68 0-125-53-125-119s57-119 125-119c69 0 126 53 126 119s-57 119-126 119" id="aN"/><g id="V"><use transform="matrix(0.010959201388888886,0,0,0.010959201388888886,0,0)" xlink:href="#aL"/><use transform="matrix(0.010959201388888886,0,0,0.010959201388888886,14.115451388888886,0)" xlink:href="#an"/><use transform="matrix(0.010959201388888886,0,0,0.010959201388888886,27.200737847222214,0)" xlink:href="#aM"/><use transform="matrix(0.010959201388888886,0,0,0.010959201388888886,37.52430555555554,0)" xlink:href="#aa"/><use transform="matrix(0.010959201388888886,0,0,0.010959201388888886,50.127387152777764,0)" xlink:href="#ak"/><use transform="matrix(0.010959201388888886,0,0,0.010959201388888886,63.87022569444443,0)" xlink:href="#aN"/><use transform="matrix(0.010959201388888886,0,0,0.010959201388888886,69.30598958333331,0)" xlink:href="#al"/><use transform="matrix(0.010959201388888886,0,0,0.010959201388888886,82.57758246527776,0)" xlink:href="#as"/><use transform="matrix(0.010959201388888886,0,0,0.010959201388888886,94.42447916666664,0)" xlink:href="#av"/></g><g id="W"><use transform="matrix(0.010959201388888886,0,0,0.010959201388888886,0,0)" xlink:href="#ab"/><use transform="matrix(0.010959201388888886,0,0,0.010959201388888886,12.175672743055554,0)" xlink:href="#ag"/><use transform="matrix(0.010959201388888886,0,0,0.010959201388888886,25.633572048611104,0)" xlink:href="#al"/><use transform="matrix(0.010959201388888886,0,0,0.010959201388888886,38.90516493055555,0)" xlink:href="#ae"/></g><g id="X"><use transform="matrix(0.010959201388888886,0,0,0.010959201388888886,0,0)" xlink:href="#ak"/><use transform="matrix(0.010959201388888886,0,0,0.010959201388888886,13.742838541666664,0)" xlink:href="#aj"/><use transform="matrix(0.010959201388888886,0,0,0.010959201388888886,19.17860243055555,0)" xlink:href="#ae"/><use transform="matrix(0.010959201388888886,0,0,0.010959201388888886,27.25553385416666,0)" xlink:href="#an"/><use transform="matrix(0.010959201388888886,0,0,0.010959201388888886,40.34082031249999,0)" xlink:href="#af"/><use transform="matrix(0.010959201388888886,0,0,0.010959201388888886,53.163085937499986,0)" xlink:href="#av"/><use transform="matrix(0.010959201388888886,0,0,0.010959201388888886,60.50575086805554,0)" xlink:href="#aj"/><use transform="matrix(0.010959201388888886,0,0,0.010959201388888886,65.94151475694443,0)" xlink:href="#ag"/><use transform="matrix(0.010959201388888886,0,0,0.010959201388888886,79.39941406249999,0)" xlink:href="#au"/></g><g id="Y"><use transform="matrix(0.010959201388888886,0,0,0.010959201388888886,0,0)" xlink:href="#Z"/><use transform="matrix(0.010959201388888886,0,0,0.010959201388888886,14.400390624999996,0)" xlink:href="#av"/><use transform="matrix(0.010959201388888886,0,0,0.010959201388888886,21.85264756944444,0)" xlink:href="#aa"/><use transform="matrix(0.010959201388888886,0,0,0.010959201388888886,34.45572916666666,0)" xlink:href="#ae"/><use transform="matrix(0.010959201388888886,0,0,0.010959201388888886,43.25596788194443,0)" xlink:href="#av"/></g></defs></g></svg>